<svg aria-hidden="true" style="position: absolute; width: 0; height: 0; overflow: hidden;" version="1.1" xmlns="http://www.w3.org/2000/svg" xmlns:xlink="http://www.w3.org/1999/xlink">
<defs>
<symbol id="icon-icon2" viewBox="0 0 32 32">
<path d="M22.197 21.562c0.265 0.113 0.554 0.050 0.769-0.139 0.189-0.164 1.084-0.983 1.424-1.184 0.428-0.252 0.756-4.549 0.756-4.536 0.025-0.252-0.063-0.504-0.239-0.681-1.726-1.751-1.814-1.978-3.868-2.23-0.567-0.076-0.945-0.050-1.021 0.076-0.315 0.504 1.109 1.424 2.23 1.424 0.428 0 1.751 1.399 1.625 1.714-0.088 0.214-0.050 1.588-0.063 3.1l-0.567 0.29c-0.315 0.164-0.706 0.454-0.869 0.668-0.29 0.365-0.315 0.366-0.806 0.076-0.466-0.277-1.273-0.265-1.273 0.025 0 0.252 0.995 1.046 1.651 1.31l0.252 0.088z"></path>
<path d="M28.057 10.851c0.013-0.391-0.164-0.769-0.466-1.008-0.567-0.441-1.184-0.491-1.487-0.139-0.958 1.159-4.813 0.743-8.681-0.945-2.659-1.159-5.733-1.676-8.379-1.411-5.746 0.567-5.153 0.706-4.599 14.78l0.617 0.315c0.605 0.315 0.655 0.315 2.369-0.063 2.734-0.605 7.195-0.554 9.79 0.088 2.331 0.58 2.81 0.479 1.852-0.428-1.764-1.663-8.795-2.621-11.643-1.575-0.58 0.214-1.121 0.378-1.21 0.378-0.302 0 0.265-3.793-0.025-11.643 0.013 0 5.96-1.676 10.382 0.58 2.394 1.222 5.317 2.016 7.51 2.029h2.129c0 10.244 0.088 11.315-0.277 11.315-0.164 0-1.159-0.113-2.218-0.252-2.054-0.265-2.344-0.214-1.928 0.378 0.403 0.567 2.936 1.184 4.524 1.26 1.462 0.076 1.285-0.139 1.348-1.033 0.063-1.096 0-0.227 0.391-12.625z"></path>
<path d="M8.829 11.847c0.391-0.101 1.058-0.668 1.172-0.995 0.050-0.164 0.517-0.151 1.953 0.013 3.553 0.416 1.915-1.058 1.235-1.247-0.794-0.227-2.029-0.139-3.44 0.076-0.265 0.038-0.58 0.239-0.693 0.454s-0.693 0.567-1.096 0.983c-1.096 1.096-1.21 6.577-0.151 6.741 0.869 0.126 1.159 0.239 1.6 0.655 0.542 0.491 0.605 0.441 4.196 0.441 0.491 0 0.756-1.21-2.331-1.336-1.273-0.050-1.55-0.126-2.003-0.504-0.29-0.239-0.605-0.441-0.693-0.441-0.391 0-0.139-4.75 0.252-4.838z"></path>
<path d="M16.338 18.638c0.139-0.176 0.239-0.857 0.239-0.92s0.378-0.038 0.794-0.151c1.537-0.416 1.499-2.281-0.063-3.163-0.428-0.239-1.991-0.328-1.777-1.285 0.151-0.706 0.68-0.466 1.247-0.189 0.391 0.176 0.731 0.378 1.071 0.554 0.605 0.315 0.592-0.491 0.189-0.832-0.252-0.214-0.617-0.428-0.983-0.592-0.076-0.038 0.076-0.403-0.050-0.668-0.265-0.542-1.021-0.781-1.021-0.315 0 0.063-0.113 0.567-0.113 0.567-0.013 0-1.348-0.617-1.852 0.869-0.252 0.743 0.063 1.827 1.008 2.117 0.756 0.239 2.129 0.479 2.029 1.26-0.139 1.084-1.978 0.34-1.991 0.34-1.31-0.328-2.205 0.101-0.655 0.794 0.265 0.126 0.857 0.277 0.983 0.391s-0.013 0.832-0.013 0.958c0.025 0.554 0.655 0.68 0.958 0.265z"></path>
</symbol>
<symbol id="icon-icon3" viewBox="0 0 32 32">
<path d="M21.27 6.353c-1.049 0.473-1.614 1.395-1.695 2.756-0.104 1.822-0.519 2.444-0.992 1.499-1.718-3.39-7.621-4.347-8.221-1.326-0.069 0.323-0.081 0.323-0.83 0.323-3.297-0.023-5.2 6.468-2.836 9.685 0.161 0.219-0.069 0.992-0.749 2.502-0.38 0.842-0.334 0.98 0.334 1.28 0.611 0.277 0.807-0.012 2.029-3.009 0.184-0.45 0.184-0.957 0-1.407-0.277-0.669-0.611-1.407-0.876-1.902-0.876-1.718-0.3-4.139 1.337-5.592 1.499-1.326 3.032-0.231 1.718 1.234-1.81 2.006-0.092 4.439 2.571 3.643 2.387-0.703 2.479-4.035 0.127-4.669-1.245-0.334-1.776-2.087-0.83-2.721 2.352-1.591 5.281 1.672 4.969 5.546-0.161 2.018 1.868 1.095 1.868-0.288 0-0.357 0.092-0.553 0.461-0.98 0.784-0.911 1.153-1.868 1.326-3.517 0.161-1.522 2.144-2.79 2.709-1.729 0.357 0.669-0.208 4.243-0.842 5.269-0.507 0.83-2.306 2.871-2.882 3.263-0.749 0.507-0.669 0.945 0.219 1.095 0.438 0.069 0.507 0.046 1.326-0.634 2.041-1.695 2.686-2.525 3.171-4.116 0.346-1.13 0.853-0.876 0.865 0.3 0.012 2.41-2.513 5.223-4.935 6.214-0.576 0.242-0.611 0.507-0.115 0.876 0.738 0.542 2.052-0.023 3.563-1.533 0.945-0.945 0.992-0.968 0.888-0.588-0.565 2.191-2.387 4.001-4.704 4.681-1.533 0.45-2.963 0.772-4.035 0.911-0.15 0.046-1.061 0.012-1.822 0.819-1.118 1.188 0.6 2.133 1.188 1.188 0.438-0.715 0.576-0.784 1.43-0.796 0.842 0 0.888-0.012 3.274-0.68 2.029-0.565 3.228-1.153 4.093-1.995 1.822-1.787 2.583-4.37 1.637-5.615-0.208-0.277-0.208-0.288 0.127-1.015 0.68-1.453 0.519-3.367-0.38-4.45-0.323-0.392-0.346-0.496-0.38-1.441-0.046-2.237-2.271-3.909-4.105-3.078zM13.004 12.071c0.957 0.484 0.392 2.986-0.726 3.263-0.392 0.104-2.133-0.796-0.773-2.675 0.623-0.865 0.807-0.945 1.499-0.588z"></path>
</symbol>
<symbol id="icon-Vector" viewBox="0 0 25 32">
<path d="M14.27 0.791c-3.37 1.712-10.967 10.165-13.444 14.902-1.494 2.86-1.312 3.024 3.516 3.297l3.443 0.2c-6.248 10.93-5.611 9.764-5.666 9.874-1.366 2.35 0.492 3.917 2.459 2.077 0.018-0.018 16.905-13.134 19.929-17.488 0.346-0.492 0.255-1.057-0.51-1.621-1.257-0.929-2.951-1.221-9.127-1.731-0.966-0.073-1.403-0.182-1.33-0.328 0.455-1.111 2.204-5.775 3.042-7.597 0.984-2.131 0.893-3.224-2.314-1.585zM13.013 4.872c-0.164 0.383-2.186 5.228-2.277 5.429-0.474 0.947-0.164 1.439 1.020 1.567 3.935 0.419 5.502 0.565 7.086 0.638 2.623 0.127 2.642 0.018-0.128 2.805-2.951 2.988-10.493 9.91-10.657 9.746-0.146-0.146 2.277-4.773 2.933-5.629 1.184-1.548 0.82-1.767-2.951-1.767-1.694 0-2.751-0.036-3.552-0.091-0.747-0.055-1.202-0.856-0.838-1.53 1.366-2.496 3.807-5.611 7.87-10.074 1.858-2.004 1.894-2.040 1.494-1.093z"></path>
</symbol>
<symbol id="icon-arrow-right-1" viewBox="0 0 32 32">
  <path stroke-linejoin="round" stroke-linecap="round" stroke-miterlimit="4" stroke-width="3" d="M5 16h22"></path>
  <path stroke-linejoin="round" stroke-linecap="round" stroke-miterlimit="4" stroke-width="3" d="M18 7l9 9-9 9"></path>
  </symbol>
  <symbol id="icon-calendar-1" viewBox="0 0 32 32">
    <path stroke-linejoin="round" stroke-linecap="round" stroke-miterlimit="4" stroke-width="2" d="M26 5h-20c-0.552 0-1 0.448-1 1v20c0 0.552 0.448 1 1 1h20c0.552 0 1-0.448 1-1v-20c0-0.552-0.448-1-1-1z"></path>
    <path stroke-linejoin="round" stroke-linecap="round" stroke-miterlimit="4" stroke-width="2" d="M22 3v4"></path>
    <path stroke-linejoin="round" stroke-linecap="round" stroke-miterlimit="4" stroke-width="2" d="M10 3v4"></path>
    <path stroke-linejoin="round" stroke-linecap="round" stroke-miterlimit="4" stroke-width="2" d="M5 11h22"></path>
    <path stroke-linejoin="round" stroke-linecap="round" stroke-miterlimit="4" stroke-width="2" d="M11.5 15.999h3.5l-2 2.5c0.329 0 0.653 0.081 0.943 0.236s0.537 0.379 0.72 0.653c0.183 0.273 0.295 0.588 0.327 0.915s-0.017 0.657-0.142 0.961-0.325 0.572-0.579 0.781c-0.254 0.209-0.556 0.352-0.878 0.416s-0.656 0.048-0.971-0.047c-0.315-0.095-0.601-0.267-0.834-0.499"></path>
    <path stroke-linejoin="round" stroke-linecap="round" stroke-miterlimit="4" stroke-width="2" d="M18 17.5l2-1.5v6.5"></path>
    </symbol>
</defs>
</svg>
